<svg xmlns="http://www.w3.org/2000/svg" viewBox="0 0 24 24" width="24" height="24" fill="#000"><path d="M12 .5A11.5 11.5 0 0 0 .5 12.3c0 5.2 3.4 9.6 8.2 11.2.6.1.8-.3.8-.6v-2.2c-3.3.7-4-1.4-4-1.4-.5-1.3-1.2-1.7-1.2-1.7-1-.7.1-.7.1-.7 1.1.1 1.6 1.1 1.6 1.1 1 .1.7 2 .7 2 1.9.7 3.2-.1 3.6-.3.1-.8.4-1.3.7-1.6-2.7-.3-5.6-1.4-5.6-6.1 0-1.3.5-2.4 1.1-3.2-.1-.3-.5-1.6.1-3.4 0 0 1-.3 3.3 1.2a11.2 11.2 0 0 1 6 0c2.3-1.5 3.3-1.2 3.3-1.2.6 1.8.2 3.1.1 3.4.8.8 1.1 1.9 1.1 3.2 0 4.7-2.9 5.7-5.6 6.1.4.4.8 1.1.8 2.2v3.3c0 .3.2.7.8.6a11.8 11.8 0 0 0 8.1-11.2A11.5 11.5 0 0 0 12 .5z"/></svg>